<svg width="48" height="48" viewBox="0 0 48 48" fill="none" xmlns="http://www.w3.org/2000/svg">
<path d="M38.9539 41.8065L37.1616 36.4289C36.5353 34.5515 34.9374 33.1657 32.9895 32.8111L27.8156 31.8697V31.4687C28.7159 30.9461 29.4994 30.247 30.1234 29.4194H31.6865C32.967 29.4194 34.0091 28.3773 34.0091 27.0968V17.8065C34.0091 12.257 29.494 7.74194 23.9446 7.74194C18.3952 7.74194 13.8801 12.257 13.8801 17.8065V23.2258C13.8801 24.7185 14.9415 25.9672 16.349 26.2583C16.7833 28.4834 18.1737 30.3662 20.0736 31.4687V31.8697L14.8989 32.8111C12.9518 33.1657 11.3531 34.5515 10.7276 36.4289L10.4179 37.3587L7.78097 34.7218C7.47903 34.4199 7.47903 33.9283 7.78097 33.6263L10.839 30.569L5.09916 24.8292L1.64316 28.2852C0.619679 29.3087 0.0560665 30.6697 0.0560665 32.1174C0.0560665 33.5652 0.619679 34.9254 1.64316 35.9489L12.1064 46.4121C13.1299 47.4356 14.4909 48 15.9386 48C17.3864 48 18.7467 47.4356 19.7461 46.4354L23.5172 42.9801L22.3412 41.8065H38.9539ZM32.4607 27.0968C32.4607 27.5241 32.1131 27.871 31.6865 27.871H31.0354C31.2599 27.3592 31.4303 26.8196 31.5402 26.2583C31.8716 26.1894 32.1766 26.0578 32.4607 25.8921V27.0968ZM31.6865 24.559V21.8927C32.1472 22.1613 32.4607 22.6552 32.4607 23.2258C32.4607 23.7964 32.1472 24.2903 31.6865 24.559ZM16.2026 24.559C15.742 24.2903 15.4285 23.7964 15.4285 23.2258C15.4285 22.6552 15.742 22.1613 16.2026 21.8927V24.559ZM16.2026 19.3548V20.239C15.927 20.311 15.6685 20.4194 15.4285 20.5595V17.8065C15.4285 13.111 19.2491 9.29033 23.9446 9.29033C28.6401 9.29033 32.4607 13.111 32.4607 17.8065V20.5595C32.2207 20.4194 31.9621 20.3102 31.6865 20.239V19.3548H30.9123C28.623 19.3548 26.4708 18.463 24.8512 16.8441L23.9446 15.9376L23.038 16.8441C21.4184 18.463 19.2661 19.3548 16.9768 19.3548H16.2026ZM17.751 24.7742V20.8738C20.0759 20.6988 22.2437 19.7396 23.9446 18.1223C25.6455 19.7396 27.8132 20.6996 30.1381 20.8738V24.7742C30.1381 25.903 29.83 26.959 29.3005 27.871H23.9446V29.4194H28.0277C26.9361 30.3801 25.5092 30.9678 23.9446 30.9678C20.5296 30.9678 17.751 28.1892 17.751 24.7742ZM26.2672 32.1592V32.1956L23.9446 34.5182L21.622 32.1956V32.1592C22.3559 32.3899 23.1356 32.5161 23.9446 32.5161C24.7536 32.5161 25.5332 32.3899 26.2672 32.1592ZM12.1954 36.9182C12.6421 35.5773 13.7841 34.5871 15.1753 34.3332L20.5869 33.3499L23.9446 36.7076L27.3015 33.3507L32.7123 34.3339C34.1036 34.5879 35.2455 35.5773 35.6922 36.919L36.8063 40.2581H20.7928L17.7774 37.2426L14.4266 40.2736C14.1348 40.567 13.6246 40.567 13.3319 40.2736L11.6411 38.5827L12.1954 36.9182ZM5.09839 27.0186L8.64884 30.569L7.80807 31.4098L4.25762 27.8594L5.09839 27.0186ZM18.6739 45.319C17.943 46.0483 16.9706 46.4516 15.9371 46.4516C14.9036 46.4516 13.9312 46.0483 13.1996 45.3174L2.73632 34.855C2.00549 34.1241 1.60291 33.1518 1.60291 32.1182C1.60291 31.0839 2.00549 30.1115 2.73632 29.3807L3.16213 28.9549L6.71258 32.5053L6.68471 32.5332C5.77968 33.439 5.77968 34.9123 6.68471 35.8181L12.2365 41.3698C12.6754 41.808 13.2584 42.0503 13.8793 42.0503C14.5002 42.0503 15.0832 41.8088 15.4935 41.3969L15.5516 41.345L19.1183 44.9118L18.6739 45.319ZM20.261 43.8635L16.702 40.3045L17.7247 39.3801L21.2775 42.9329L20.261 43.8635Z" fill="#8870E9"/>
<path d="M45.622 0H34.7833C33.5028 0 32.4607 1.04206 32.4607 2.32258V8.51613C32.4607 9.79665 33.5028 10.8387 34.7833 10.8387H36.8512L36.0507 15.5079L43.5216 10.8387H45.622C46.9025 10.8387 47.9446 9.79665 47.9446 8.51613V2.32258C47.9446 1.04206 46.9025 0 45.622 0ZM46.3962 8.51613C46.3962 8.94271 46.0486 9.29032 45.622 9.29032H43.0772L38.1603 12.3631L38.6876 9.29032H34.7833C34.3567 9.29032 34.0091 8.94271 34.0091 8.51613V2.32258C34.0091 1.896 34.3567 1.54839 34.7833 1.54839H45.622C46.0486 1.54839 46.3962 1.896 46.3962 2.32258V8.51613Z" fill="#FFA800"/>
<path d="M44.8478 3.09692H35.5575V4.64531H44.8478V3.09692Z" fill="#FFA800"/>
<path d="M41.7511 6.1936H35.5575V7.74199H41.7511V6.1936Z" fill="#FFA800"/>
<path d="M44.8479 6.1936H43.2995V7.74199H44.8479V6.1936Z" fill="#FFA800"/>
<path d="M23.9446 2.32251C13.829 2.32251 5.11543 9.31967 2.85015 19.0799L1.38305 16.6343L0.0553074 17.4309L2.7766 21.9653L7.31105 19.2441L6.5144 17.9163L4.41634 19.1752C6.6104 10.2464 14.6396 3.8709 23.9446 3.8709C25.9784 3.8709 27.9851 4.17283 29.909 4.76896L30.3673 3.29025C28.2948 2.64767 26.134 2.32251 23.9446 2.32251Z" fill="#8870E9"/>
<path d="M47.5683 17.1422L43.0339 14.4209L40.3134 18.9561L41.6411 19.7528L42.9959 17.4944C43.709 19.5809 44.0736 21.7634 44.0736 24C44.0736 28.6041 42.4788 33.1053 39.5841 36.6735L40.7864 37.649C43.9048 33.8059 45.622 28.9579 45.622 24C45.622 21.6317 45.2403 19.3192 44.4963 17.105L46.7717 18.4699L47.5683 17.1422Z" fill="#8870E9"/>
</svg>
