<svg width="48" height="48" viewBox="0 0 48 48" fill="none" xmlns="http://www.w3.org/2000/svg">
<path d="M40.5 42.75C39.2595 42.75 38.25 43.7595 38.25 45C38.25 46.2405 39.2595 47.25 40.5 47.25C41.7405 47.25 42.75 46.2405 42.75 45C42.75 43.7595 41.7405 42.75 40.5 42.75ZM40.5 45.75C40.086 45.75 39.75 45.414 39.75 45C39.75 44.586 40.086 44.25 40.5 44.25C40.914 44.25 41.25 44.586 41.25 45C41.25 45.414 40.914 45.75 40.5 45.75Z" fill="#2A2241"/>
<path d="M33.9967 39.1449L35.0032 40.2563C38.034 37.5129 42.966 37.5129 45.9967 40.2563L47.0032 39.1449C43.4175 35.8974 37.5825 35.8974 33.9967 39.1449Z" fill="#2A2241"/>
<path d="M36.2639 41.4141L37.3109 42.4881C39.0689 40.7744 41.9309 40.7744 43.6889 42.4881L44.7359 41.4141C42.3997 39.1364 38.6002 39.1364 36.2639 41.4141Z" fill="#2A2241"/>
<path d="M42.75 6V29.0227L41.124 26.5837L39.876 27.4155L43.5 32.8522L47.124 27.4162L45.876 26.5845L44.25 29.0227V6C44.25 4.7595 43.2405 3.75 42 3.75H35.25V5.25H42C42.414 5.25 42.75 5.586 42.75 6Z" fill="#FFA800"/>
<path d="M22.5 6.75C23.7405 6.75 24.75 5.7405 24.75 4.5C24.75 3.2595 23.7405 2.25 22.5 2.25C21.2595 2.25 20.25 3.2595 20.25 4.5C20.25 5.7405 21.2595 6.75 22.5 6.75ZM22.5 3.75C22.914 3.75 23.25 4.086 23.25 4.5C23.25 4.914 22.914 5.25 22.5 5.25C22.086 5.25 21.75 4.914 21.75 4.5C21.75 4.086 22.086 3.75 22.5 3.75Z" fill="#FFA800"/>
<path d="M30 8.25C32.0677 8.25 33.75 6.56775 33.75 4.5C33.75 2.43225 32.0677 0.75 30 0.75C27.9323 0.75 26.25 2.43225 26.25 4.5C26.25 6.56775 27.9323 8.25 30 8.25ZM30 2.25C31.2405 2.25 32.25 3.2595 32.25 4.5C32.25 5.7405 31.2405 6.75 30 6.75C28.7595 6.75 27.75 5.7405 27.75 4.5C27.75 3.2595 28.7595 2.25 30 2.25Z" fill="#FFA800"/>
<path d="M5.24996 42V30.9772L6.87596 33.4162L8.12396 32.5845L4.49996 27.1477L0.875961 32.5837L2.12396 33.4155L3.74996 30.9772V42C3.74996 43.2405 4.75946 44.25 5.99996 44.25H12.75V42.75H5.99996C5.58596 42.75 5.24996 42.414 5.24996 42Z" fill="#FFA800"/>
<path d="M25.5 41.25C24.2595 41.25 23.25 42.2595 23.25 43.5C23.25 44.7405 24.2595 45.75 25.5 45.75C26.7405 45.75 27.75 44.7405 27.75 43.5C27.75 42.2595 26.7405 41.25 25.5 41.25ZM25.5 44.25C25.086 44.25 24.75 43.914 24.75 43.5C24.75 43.086 25.086 42.75 25.5 42.75C25.914 42.75 26.25 43.086 26.25 43.5C26.25 43.914 25.914 44.25 25.5 44.25Z" fill="#FFA800"/>
<path d="M18 39.75C15.9323 39.75 14.25 41.4323 14.25 43.5C14.25 45.5677 15.9323 47.25 18 47.25C20.0677 47.25 21.75 45.5677 21.75 43.5C21.75 41.4323 20.0677 39.75 18 39.75ZM18 45.75C16.7595 45.75 15.75 44.7405 15.75 43.5C15.75 42.2595 16.7595 41.25 18 41.25C19.2405 41.25 20.25 42.2595 20.25 43.5C20.25 44.7405 19.2405 45.75 18 45.75Z" fill="#FFA800"/>
<path d="M38.25 24C38.25 16.1423 31.8577 9.75 24 9.75C21.6225 9.75 19.317 10.341 17.25 11.4555V3.75C17.25 2.0955 15.9045 0.75 14.25 0.75H3.75C2.0955 0.75 0.75 2.0955 0.75 3.75V21.75C0.75 23.4045 2.0955 24.75 3.75 24.75H9.78825C10.182 32.2582 16.3958 38.25 24 38.25C31.8577 38.25 38.25 31.8577 38.25 24ZM16.8472 23.25C17.1038 22.8083 17.25 22.296 17.25 21.75V17.25H19.6553C19.1768 18.9495 18.837 20.949 18.7733 23.25H16.8472ZM6.75 10.5C6.75 9.2595 7.7595 8.25 9 8.25C10.2405 8.25 11.25 9.2595 11.25 10.5C11.25 11.7405 10.2405 12.75 9 12.75C7.7595 12.75 6.75 11.7405 6.75 10.5ZM12.75 18.75H5.25V18C5.25 15.9323 6.93225 14.25 9 14.25C11.0677 14.25 12.75 15.9323 12.75 18V18.75ZM11.4157 13.344C12.225 12.6555 12.75 11.643 12.75 10.5C12.75 8.43225 11.0677 6.75 9 6.75C6.93225 6.75 5.25 8.43225 5.25 10.5C5.25 11.643 5.775 12.6555 6.58425 13.344C4.90275 14.22 3.75 15.9765 3.75 18V18.75H2.25V5.25H15.75V18.75H14.25V18C14.25 15.9765 13.0972 14.22 11.4157 13.344ZM21.2243 17.25H26.7757C27.2857 18.9158 27.657 20.9242 27.7268 23.25H20.2725C20.3423 20.9242 20.7143 18.9158 21.2243 17.25ZM21.7537 15.75C22.539 13.761 23.4405 12.3968 24 11.6678C24.5595 12.3968 25.4618 13.761 26.2463 15.75H21.7537ZM36.7118 23.25H29.2268C29.163 20.949 28.8232 18.9495 28.3447 17.25H34.7962C35.901 19.0103 36.5835 21.0548 36.7118 23.25ZM36.7118 24.75C36.5828 26.9452 35.901 28.9897 34.7962 30.75H28.3447C28.8232 29.0505 29.163 27.051 29.2268 24.75H36.7118ZM27.7268 24.75C27.657 27.0758 27.2857 29.0842 26.7757 30.75H21.2235C20.7135 29.0842 20.3423 27.0758 20.2725 24.75H27.7268ZM26.2463 32.25C25.461 34.2397 24.5588 35.6033 24 36.3323C23.4405 35.6033 22.5382 34.239 21.753 32.25H26.2463ZM25.6493 36.6307C26.316 35.6693 27.1628 34.2105 27.87 32.25H33.7043C31.7002 34.6027 28.8615 36.213 25.6493 36.6307ZM33.7035 15.75H27.87C27.162 13.7887 26.316 12.3308 25.6493 11.3693C28.8615 11.787 31.7003 13.3973 33.7035 15.75ZM22.3568 11.3617C21.6885 12.3225 20.8403 13.7835 20.13 15.75H17.25V13.1918C18.807 12.216 20.5425 11.595 22.3568 11.3617ZM3.75 2.25H14.25C15.0773 2.25 15.75 2.92275 15.75 3.75H2.25C2.25 2.92275 2.92275 2.25 3.75 2.25ZM2.25 21.75V20.25H15.75V21.75C15.75 22.5772 15.0773 23.25 14.25 23.25H3.75C2.92275 23.25 2.25 22.5772 2.25 21.75ZM18.7725 24.75C18.8363 27.051 19.176 29.0505 19.6545 30.75H13.203C12.0983 28.9897 11.4165 26.9452 11.2875 24.75H18.7725ZM14.2965 32.25H20.1307C20.8387 34.2113 21.6847 35.6693 22.3515 36.6307C19.1385 36.213 16.2998 34.6027 14.2965 32.25Z" fill="#2A2241"/>
</svg>
