<svg width="27" height="22" viewBox="0 0 27 22" fill="none" xmlns="http://www.w3.org/2000/svg">
<path d="M17.3836 11.0256C16.5972 11.0256 15.9342 11.0239 15.2713 11.0273C15.1229 11.0282 14.9464 10.999 14.8561 11.157C14.7475 11.3451 14.9025 11.4817 14.9945 11.614C15.4337 12.2385 15.8803 12.8569 16.3245 13.478C18.083 15.9389 19.8407 18.399 21.5983 20.8608C21.7624 21.091 21.9555 21.2465 22.2513 21.2457C23.5358 21.2405 24.8194 21.2439 26.1039 21.2422C26.2265 21.2422 26.3666 21.2525 26.4403 21.1245C26.5298 20.9691 26.4138 20.854 26.3343 20.7414C24.9429 18.783 23.554 16.8228 22.1568 14.8686C21.8411 14.4271 21.8378 14.355 22.2969 14.0981C23.0535 13.6747 23.7935 13.2228 24.357 12.5357C26.2133 10.2705 26.6235 7.73571 25.6166 4.95865C24.7167 2.47621 22.1585 0.640584 19.6103 0.63543C18.0913 0.630276 16.5723 0.644879 15.0533 0.625123C14.6348 0.619969 14.3613 0.777161 14.1185 1.12247C12.7255 3.09811 11.3176 5.06258 9.91294 7.02877C9.54832 7.53815 9.52511 7.53729 9.16132 7.02534C7.76912 5.06688 6.38023 3.1067 4.9872 1.14824C4.80655 0.893981 4.62258 0.636289 4.26873 0.636289C2.99835 0.638007 1.72796 0.636289 0.457581 0.639725C0.305931 0.639725 0.133563 0.650892 0.0515229 0.804648C-0.0421191 0.979879 0.113675 1.09412 0.199859 1.21524C2.37931 4.27748 4.56043 7.33972 6.74154 10.4002C7.13434 10.9508 7.13434 10.9474 6.73408 11.5075C4.55711 14.5551 2.38097 17.6027 0.205659 20.6521C0.11036 20.7852 -0.0628363 20.9158 0.0233474 21.0996C0.118647 21.3023 0.337421 21.2405 0.509789 21.2414C1.40726 21.2465 2.30473 21.2508 3.2022 21.2431C4.94743 21.2276 4.45187 21.4381 5.42227 20.0963C6.68105 18.3561 7.92408 16.6038 9.17623 14.8583C9.50688 14.3971 9.58726 14.4005 9.92703 14.8703C10.2005 15.2483 10.469 15.6288 10.7391 16.0085C11.8794 17.6079 13.0205 19.2064 14.1608 20.8059C14.3597 21.0842 14.5984 21.2534 14.9597 21.2499C16.1886 21.2353 17.4176 21.2457 18.6465 21.2422C18.7932 21.2422 18.9763 21.2826 19.06 21.1185C19.147 20.9484 18.9954 20.8256 18.9092 20.7045C16.7215 17.6294 14.5321 14.556 12.341 11.4834C11.9656 10.9577 11.9648 10.9208 12.3344 10.4037C13.6818 8.51738 15.0309 6.63279 16.3701 4.74133C16.5342 4.5094 16.7231 4.40375 16.9958 4.40633C17.8104 4.4132 18.6258 4.39172 19.4396 4.4132C20.8981 4.45185 22.0533 5.41476 22.4195 6.86729C22.9068 8.79998 21.6737 10.6906 19.7793 10.956C18.9407 11.0728 18.1004 10.9843 17.3836 11.0256Z" fill="white"/>
</svg>
