<svg width="117" height="30" viewBox="0 0 117 30" fill="none" xmlns="http://www.w3.org/2000/svg">
<path d="M17.3836 13.0256C16.5972 13.0256 15.9342 13.0239 15.2713 13.0273C15.1229 13.0282 14.9464 12.999 14.8561 13.157C14.7475 13.3451 14.9025 13.4817 14.9945 13.614C15.4337 14.2385 15.8803 14.8569 16.3245 15.478C18.083 17.9389 19.8407 20.399 21.5983 22.8608C21.7624 23.091 21.9555 23.2465 22.2513 23.2457C23.5358 23.2405 24.8194 23.2439 26.1039 23.2422C26.2265 23.2422 26.3666 23.2525 26.4403 23.1245C26.5298 22.9691 26.4138 22.854 26.3343 22.7414C24.9429 20.783 23.554 18.8228 22.1568 16.8686C21.8411 16.4271 21.8378 16.355 22.2969 16.0981C23.0535 15.6747 23.7935 15.2228 24.357 14.5357C26.2133 12.2705 26.6235 9.73571 25.6166 6.95865C24.7167 4.47621 22.1585 2.64058 19.6103 2.63543C18.0913 2.63028 16.5723 2.64488 15.0533 2.62512C14.6348 2.61997 14.3613 2.77716 14.1185 3.12247C12.7255 5.09811 11.3176 7.06258 9.91294 9.02877C9.54832 9.53815 9.52511 9.53729 9.16132 9.02534C7.76912 7.06688 6.38023 5.1067 4.9872 3.14824C4.80655 2.89398 4.62258 2.63629 4.26873 2.63629C2.99835 2.63801 1.72796 2.63629 0.457581 2.63973C0.305931 2.63973 0.133563 2.65089 0.0515229 2.80465C-0.0421191 2.97988 0.113675 3.09412 0.199859 3.21524C2.37931 6.27748 4.56043 9.33972 6.74154 12.4002C7.13434 12.9508 7.13434 12.9474 6.73408 13.5075C4.55711 16.5551 2.38097 19.6027 0.205659 22.6521C0.11036 22.7852 -0.0628363 22.9158 0.0233474 23.0996C0.118647 23.3023 0.337421 23.2405 0.509789 23.2414C1.40726 23.2465 2.30473 23.2508 3.2022 23.2431C4.94743 23.2276 4.45187 23.4381 5.42227 22.0963C6.68105 20.3561 7.92408 18.6038 9.17623 16.8583C9.50688 16.3971 9.58726 16.4005 9.92703 16.8703C10.2005 17.2483 10.469 17.6288 10.7391 18.0085C11.8794 19.6079 13.0205 21.2064 14.1608 22.8059C14.3597 23.0842 14.5984 23.2534 14.9597 23.2499C16.1886 23.2353 17.4176 23.2457 18.6465 23.2422C18.7932 23.2422 18.9763 23.2826 19.06 23.1185C19.147 22.9484 18.9954 22.8256 18.9092 22.7045C16.7215 19.6294 14.5321 16.556 12.341 13.4834C11.9656 12.9577 11.9648 12.9208 12.3344 12.4037C13.6818 10.5174 15.0309 8.63279 16.3701 6.74133C16.5342 6.5094 16.7231 6.40375 16.9958 6.40633C17.8104 6.4132 18.6258 6.39172 19.4396 6.4132C20.8981 6.45185 22.0533 7.41476 22.4195 8.86729C22.9068 10.8 21.6737 12.6906 19.7793 12.956C18.9407 13.0728 18.1004 12.9843 17.3836 13.0256Z" fill="white"/>
<path d="M49.484 17.764H38.564L36.212 23H34.056L43.016 3.4H45.06L54.02 23H51.836L49.484 17.764ZM48.728 16.084L44.024 5.556L39.32 16.084H48.728ZM65.6503 8.16V23H64.2903V20.92C63.8636 21.6267 63.297 22.1667 62.5903 22.54C61.897 22.9133 61.1103 23.1 60.2303 23.1C59.2436 23.1 58.3503 22.8733 57.5503 22.42C56.7503 21.9667 56.1236 21.3333 55.6703 20.52C55.217 19.7067 54.9903 18.78 54.9903 17.74C54.9903 16.7 55.217 15.7733 55.6703 14.96C56.1236 14.1467 56.7503 13.52 57.5503 13.08C58.3503 12.6267 59.2436 12.4 60.2303 12.4C61.0836 12.4 61.8503 12.58 62.5303 12.94C63.2236 13.2867 63.7903 13.8 64.2303 14.48V8.16H65.6503ZM60.3503 21.84C61.0836 21.84 61.7436 21.6733 62.3303 21.34C62.9303 20.9933 63.397 20.5067 63.7303 19.88C64.077 19.2533 64.2503 18.54 64.2503 17.74C64.2503 16.94 64.077 16.2267 63.7303 15.6C63.397 14.9733 62.9303 14.4933 62.3303 14.16C61.7436 13.8133 61.0836 13.64 60.3503 13.64C59.6036 13.64 58.9303 13.8133 58.3303 14.16C57.7436 14.4933 57.277 14.9733 56.9303 15.6C56.597 16.2267 56.4303 16.94 56.4303 17.74C56.4303 18.54 56.597 19.2533 56.9303 19.88C57.277 20.5067 57.7436 20.9933 58.3303 21.34C58.9303 21.6733 59.6036 21.84 60.3503 21.84ZM78.765 18.18H69.965C70.045 19.2733 70.465 20.16 71.225 20.84C71.985 21.5067 72.945 21.84 74.105 21.84C74.7583 21.84 75.3583 21.7267 75.905 21.5C76.4517 21.26 76.925 20.9133 77.325 20.46L78.125 21.38C77.6583 21.94 77.0717 22.3667 76.365 22.66C75.6717 22.9533 74.905 23.1 74.065 23.1C72.985 23.1 72.025 22.8733 71.185 22.42C70.3583 21.9533 69.7117 21.3133 69.245 20.5C68.7783 19.6867 68.545 18.7667 68.545 17.74C68.545 16.7133 68.765 15.7933 69.205 14.98C69.6583 14.1667 70.2717 13.5333 71.045 13.08C71.8317 12.6267 72.7117 12.4 73.685 12.4C74.6583 12.4 75.5317 12.6267 76.305 13.08C77.0783 13.5333 77.685 14.1667 78.125 14.98C78.565 15.78 78.785 16.7 78.785 17.74L78.765 18.18ZM73.685 13.62C72.6717 13.62 71.8183 13.9467 71.125 14.6C70.445 15.24 70.0583 16.08 69.965 17.12H77.425C77.3317 16.08 76.9383 15.24 76.245 14.6C75.565 13.9467 74.7117 13.62 73.685 13.62ZM87.0953 12.4C88.082 12.4 88.9753 12.6267 89.7753 13.08C90.5753 13.52 91.202 14.1467 91.6553 14.96C92.1086 15.7733 92.3353 16.7 92.3353 17.74C92.3353 18.7933 92.1086 19.7267 91.6553 20.54C91.202 21.3533 90.5753 21.9867 89.7753 22.44C88.9886 22.88 88.0953 23.1 87.0953 23.1C86.242 23.1 85.4686 22.9267 84.7753 22.58C84.0953 22.22 83.5353 21.7 83.0953 21.02V26.88H81.6753V12.48H83.0353V14.56C83.462 13.8667 84.022 13.3333 84.7153 12.96C85.422 12.5867 86.2153 12.4 87.0953 12.4ZM86.9953 21.84C87.7286 21.84 88.3953 21.6733 88.9953 21.34C89.5953 20.9933 90.062 20.5067 90.3953 19.88C90.742 19.2533 90.9153 18.54 90.9153 17.74C90.9153 16.94 90.742 16.2333 90.3953 15.62C90.062 14.9933 89.5953 14.5067 88.9953 14.16C88.3953 13.8133 87.7286 13.64 86.9953 13.64C86.2486 13.64 85.5753 13.8133 84.9753 14.16C84.3886 14.5067 83.922 14.9933 83.5753 15.62C83.242 16.2333 83.0753 16.94 83.0753 17.74C83.0753 18.54 83.242 19.2533 83.5753 19.88C83.922 20.5067 84.3886 20.9933 84.9753 21.34C85.5753 21.6733 86.2486 21.84 86.9953 21.84ZM100.77 22.36C100.503 22.6 100.17 22.7867 99.77 22.92C99.3833 23.04 98.9767 23.1 98.55 23.1C97.5633 23.1 96.8033 22.8333 96.27 22.3C95.7367 21.7667 95.47 21.0133 95.47 20.04V13.68H93.59V12.48H95.47V10.18H96.89V12.48H100.09V13.68H96.89V19.96C96.89 20.5867 97.0433 21.0667 97.35 21.4C97.67 21.72 98.1233 21.88 98.71 21.88C99.0033 21.88 99.2833 21.8333 99.55 21.74C99.83 21.6467 100.07 21.5133 100.27 21.34L100.77 22.36Z" fill="white"/>
</svg>
