<svg width="40" height="49" viewBox="0 0 40 49" fill="none" xmlns="http://www.w3.org/2000/svg">
<path d="M37.3115 30.8223L35.8067 27.7503C36.1259 27.0891 36.3993 26.4211 36.624 25.7561L39.8097 24.6718V15.7722L36.624 14.688C36.4001 14.023 36.1259 13.355 35.8067 12.6938L37.313 9.61873L31.149 3.32625L28.1367 4.86396C27.489 4.53811 26.8346 4.25822 26.1832 4.0296L25.1211 0.777588H16.4031L15.3409 4.0296C14.6895 4.25822 14.0351 4.53811 13.3874 4.86396L10.3752 3.32625L4.21109 9.61873L5.71741 12.6938C5.39822 13.355 5.12404 14.023 4.90008 14.688L1.71444 15.7722V24.6711L4.90008 25.755C5.12255 26.4154 5.39301 27.0773 5.70923 27.7332L4.72932 29.5554H0.190628V45.1109H5.52396V42.7776H11.3037L13.5894 45.1109H17.7144V45.8887C17.7144 47.6045 19.0813 48.9998 20.7621 48.9998C22.4429 48.9998 23.8097 47.6045 23.8097 45.8887V45.1109H29.1438C30.4038 45.1109 31.4295 44.0639 31.4295 42.7776C31.4295 42.1779 31.2003 41.636 30.8353 41.222C31.201 40.8081 31.4295 40.2661 31.4295 39.6665C31.4295 39.0668 31.2003 38.5249 30.8353 38.1109C31.1263 37.7813 31.3249 37.3696 31.3945 36.9108L37.3115 30.8223ZM7.2468 27.3884C6.82753 26.5665 6.48564 25.731 6.23006 24.9065L6.11288 24.5287L3.23825 23.55V16.8933L6.11288 15.9154L6.22932 15.5368C6.48378 14.713 6.82605 13.8775 7.24569 13.0557L7.425 12.7033L6.06488 9.92597L10.6754 5.21943L13.396 6.60788L13.7412 6.42521C14.547 5.99645 15.3647 5.64743 16.1717 5.38729L16.5426 5.26842L17.502 2.33314H24.0228L24.9808 5.26766L25.3517 5.38653C26.1586 5.64629 26.9771 5.99569 27.7821 6.42407L28.1274 6.60712L30.848 5.21867L35.4585 9.92521L34.0984 12.7025L34.2773 13.0549C34.6973 13.8775 35.0392 14.7123 35.2941 15.536L35.4105 15.9146L38.2859 16.8941V23.5508L35.4112 24.5287L35.2941 24.9065C35.0385 25.731 34.6966 26.5665 34.2773 27.3884L34.0984 27.7408L35.46 30.52L30.9577 35.1513C30.9191 35.0993 30.8778 35.048 30.8353 34.9998C31.201 34.5859 31.4295 34.0439 31.4295 33.4443C31.4295 32.2309 30.5143 31.2431 29.3539 31.1326C32.5861 28.4882 34.4763 24.5199 34.4763 20.222C34.4763 12.5027 28.3238 6.22203 20.7621 6.22203C13.2003 6.22203 7.04777 12.5027 7.04777 20.222C7.04777 24.4679 8.93877 28.462 12.1486 31.1109H5.63148L7.43468 27.7571L7.2468 27.3884ZM29.9057 39.6665C29.9057 40.0956 29.5634 40.4443 29.1438 40.4443H23.0478C22.6281 40.4443 22.2859 40.0956 22.2859 39.6665C22.2859 39.2373 22.6281 38.8887 23.0478 38.8887H29.1438C29.5634 38.8887 29.9057 39.2373 29.9057 39.6665ZM18.9228 20.222H22.6013L23.8097 18.9885V15.5554C24.6501 15.5554 25.3335 16.253 25.3335 17.1109V20.6778L22.7323 23.3331H18.7918L16.1906 20.6778V17.1109C16.1906 16.253 16.874 15.5554 17.7144 15.5554V18.9885L18.9228 20.222ZM19.2382 24.8887H22.2859V27.9998H19.2382V24.8887ZM23.8097 24.433L26.8573 21.3219V17.1109C26.8573 15.3951 25.4905 13.9998 23.8097 13.9998H22.2859V18.3444L21.9704 18.6665H19.5537L19.2382 18.3444V13.9998H17.7144C16.0336 13.9998 14.6668 15.3951 14.6668 17.1109V21.3219L17.7144 24.433V27.9998H15.8752L15.8272 28.0488C13.226 26.3353 11.6192 23.3977 11.6192 20.222C11.6192 15.0753 15.7204 10.8887 20.7621 10.8887C25.8037 10.8887 29.9049 15.0753 29.9049 20.222C29.9049 23.3745 28.3621 26.2616 25.7799 27.9998H23.8097V24.433ZM31.4287 20.222C31.4287 14.2174 26.6441 9.33314 20.7621 9.33314C14.88 9.33314 10.0954 14.2174 10.0954 20.222C10.0954 23.8147 11.8461 27.1597 14.7178 29.1813L13.6207 30.3012C10.4566 27.9618 8.57158 24.2176 8.57158 20.222C8.57158 13.3606 14.0407 7.77759 20.7621 7.77759C27.4834 7.77759 32.9525 13.3606 32.9525 20.222C32.9525 24.0657 31.2505 27.6124 28.3446 29.9636C28.2576 29.4122 27.9819 28.9299 27.5857 28.5793C30.0139 26.5213 31.4287 23.4911 31.4287 20.222ZM29.1438 32.6665C29.5634 32.6665 29.9057 33.0151 29.9057 33.4443C29.9057 33.8734 29.5634 34.222 29.1438 34.222H23.0478C22.6281 34.222 22.2859 33.8734 22.2859 33.4443C22.2859 33.0151 22.6281 32.6665 23.0478 32.6665H29.1438ZM23.0478 37.3331C22.6281 37.3331 22.2859 36.9845 22.2859 36.5554C22.2859 36.1262 22.6281 35.7776 23.0478 35.7776H29.1438C29.5634 35.7776 29.9057 36.1262 29.9057 36.5554C29.9057 36.9845 29.5634 37.3331 29.1438 37.3331H23.0478ZM4.00015 43.5554H1.71444V31.1109H4.00015V43.5554ZM14.2204 43.5554L11.9347 41.222H5.52396V32.6665H13.4585L16.5061 29.5554H26.0954C26.515 29.5554 26.8573 29.904 26.8573 30.3331C26.8573 30.7623 26.515 31.1109 26.0954 31.1109H18.1609L14.89 34.4499L15.9674 35.5497L17.7144 33.7663V43.5554H14.2204ZM20.7621 47.4443C19.9217 47.4443 19.2382 46.7466 19.2382 45.8887V32.6665H20.9023C20.8167 32.9107 20.7621 33.1704 20.7621 33.4443C20.7621 34.0439 20.9912 34.5859 21.3562 34.9998C20.9905 35.4138 20.7621 35.9557 20.7621 36.5554C20.7621 37.155 20.9912 37.697 21.3562 38.1109C20.9905 38.5249 20.7621 39.0668 20.7621 39.6665C20.7621 40.2661 20.9912 40.8081 21.3562 41.222C20.9905 41.636 20.7621 42.1779 20.7621 42.7776C20.7621 43.7901 21.4012 44.6457 22.2859 44.9677V45.8887C22.2859 46.7466 21.6025 47.4443 20.7621 47.4443ZM29.1438 43.5554H23.0478C22.6281 43.5554 22.2859 43.2067 22.2859 42.7776C22.2859 42.3484 22.6281 41.9998 23.0478 41.9998H29.1438C29.5634 41.9998 29.9057 42.3484 29.9057 42.7776C29.9057 43.2067 29.5634 43.5554 29.1438 43.5554Z" fill="white"/>
</svg>
