<svg width="48" height="48" viewBox="0 0 48 48" fill="none" xmlns="http://www.w3.org/2000/svg">
<path d="M43.6467 39.2232C44.4137 38.5156 44.9032 37.5108 44.9032 36.3873V34.839C44.9032 32.7047 43.1666 30.9681 41.0323 30.9681C39.1633 30.9681 37.5994 32.3006 37.2392 34.0648H34.6962C34.3756 33.1659 33.5239 32.5165 32.5161 32.5165C31.5079 32.5165 30.6562 33.1659 30.3357 34.0648H27.7927C27.4839 32.5505 26.2882 31.3552 24.7742 31.0463V29.3097C26.1063 28.9639 27.0968 27.7621 27.0968 26.323H27.871C28.2989 26.323 28.6452 25.9772 28.6452 25.5489V23.2263H30.1935V21.678H28.6452V21.6697C28.6452 20.1886 29.3472 18.7328 30.5712 17.6786C32.791 15.7639 34.0645 12.9893 34.0645 10.0653C34.0645 7.30013 32.9656 4.72205 30.9708 2.80589C28.9771 0.889726 26.3419 -0.110505 23.5849 0.0097045C18.3591 0.22026 14.0304 4.6491 13.937 9.88198C13.8833 12.8437 15.1323 15.6649 17.3634 17.6222C18.5912 18.6981 19.3049 20.1701 19.3469 21.678H17.8065V23.2263H19.3548V25.5489C19.3548 25.9772 19.7007 26.323 20.129 26.323H20.9032C20.9032 27.7621 21.8933 28.9639 23.2258 29.3097V31.0463C21.7114 31.3552 20.5161 32.5505 20.2069 34.0648H17.6639C17.3434 33.1659 16.4917 32.5165 15.4839 32.5165C14.4757 32.5165 13.624 33.1659 13.3034 34.0648H10.7605C10.4002 32.3006 8.83707 30.9681 6.96774 30.9681C4.83304 30.9681 3.09677 32.7047 3.09677 34.839V36.3873C3.09677 37.5108 3.58594 38.5156 4.35295 39.2232C1.80355 40.2597 0 42.7603 0 45.6775V47.2258C0 47.6541 0.345892 48 0.774193 48H13.1613C13.5892 48 13.9355 47.6541 13.9355 47.2258V45.6775C13.9355 42.7603 12.1316 40.2597 9.58216 39.2232C10.3492 38.5156 10.8387 37.5108 10.8387 36.3873V35.6132H13.3034C13.624 36.5121 14.4757 37.1615 15.4839 37.1615C16.4917 37.1615 17.3434 36.5121 17.6639 35.6132H20.129V36.3873C20.129 37.5108 20.6182 38.5156 21.3852 39.2232C18.8358 40.2597 17.0323 42.7603 17.0323 45.6775V47.2258C17.0323 47.6541 17.3781 48 17.8065 48H30.1935C30.6215 48 30.9677 47.6541 30.9677 47.2258V45.6775C30.9677 42.7603 29.1638 40.2597 26.6144 39.2232C27.3814 38.5156 27.871 37.5108 27.871 36.3873V35.6132H30.3357C30.6562 36.5121 31.5079 37.1615 32.5161 37.1615C33.5239 37.1615 34.3756 36.5121 34.6962 35.6132H37.1613V36.3873C37.1613 37.5108 37.6505 38.5156 38.4175 39.2232C35.8681 40.2597 34.0645 42.7603 34.0645 45.6775V47.2258C34.0645 47.6541 34.4104 48 34.8387 48H47.2258C47.6537 48 48 47.6541 48 47.2258V45.6775C48 42.7603 46.1961 40.2597 43.6467 39.2232ZM12.3871 45.6775V46.4516H10.8387V44.9033H9.29032V46.4516H4.64516V44.9033H3.09677V46.4516H1.54839V45.6775C1.54839 42.69 3.97984 40.2582 6.96774 40.2582C9.95527 40.2582 12.3871 42.69 12.3871 45.6775ZM4.64516 36.3873V34.839C4.64516 33.5586 5.687 32.5165 6.96774 32.5165C8.24811 32.5165 9.29032 33.5586 9.29032 34.839V36.3873C9.29032 37.6677 8.24811 38.7099 6.96774 38.7099C5.687 38.7099 4.64516 37.6677 4.64516 36.3873ZM15.4839 35.6132C15.0563 35.6132 14.7097 35.2665 14.7097 34.839C14.7097 34.4118 15.0563 34.0648 15.4839 34.0648C15.911 34.0648 16.2581 34.4118 16.2581 34.839C16.2581 35.2665 15.911 35.6132 15.4839 35.6132ZM18.3837 16.4576C16.4962 14.8019 15.4396 12.4151 15.4854 9.90882C15.5651 5.48149 19.2263 1.73459 23.6469 1.55617C26.0088 1.47036 28.2116 2.30275 29.8976 3.92293C31.5862 5.54348 32.5161 7.72577 32.5161 10.0653C32.5161 12.5387 31.4384 14.8862 29.56 16.5048C27.9946 17.8551 27.0968 19.7372 27.0968 21.6697V21.678H20.8953C20.8533 19.7248 19.9476 17.8279 18.3837 16.4576ZM27.0968 23.2263V24.7747H20.9032V23.2263H27.0968ZM22.4516 26.323H25.5484C25.5484 27.177 24.8536 27.8714 24 27.8714C23.146 27.8714 22.4516 27.177 22.4516 26.323ZM29.4194 45.6775V46.4516H27.871V44.9033H26.3226V46.4516H21.6774V44.9033H20.129V46.4516H18.5806V45.6775C18.5806 42.69 21.0121 40.2582 24 40.2582C26.9875 40.2582 29.4194 42.69 29.4194 45.6775ZM21.6774 36.3873V34.839C21.6774 33.5586 22.7193 32.5165 24 32.5165C25.2804 32.5165 26.3226 33.5586 26.3226 34.839V36.3873C26.3226 37.6677 25.2804 38.7099 24 38.7099C22.7193 38.7099 21.6774 37.6677 21.6774 36.3873ZM32.5161 35.6132C32.0886 35.6132 31.7419 35.2665 31.7419 34.839C31.7419 34.4118 32.0886 34.0648 32.5161 34.0648C32.9433 34.0648 33.2903 34.4118 33.2903 34.839C33.2903 35.2665 32.9433 35.6132 32.5161 35.6132ZM38.7097 36.3873V34.839C38.7097 33.5586 39.7515 32.5165 41.0323 32.5165C42.3126 32.5165 43.3548 33.5586 43.3548 34.839V36.3873C43.3548 37.6677 42.3126 38.7099 41.0323 38.7099C39.7515 38.7099 38.7097 37.6677 38.7097 36.3873ZM46.4516 46.4516H44.9032V44.9033H43.3548V46.4516H38.7097V44.9033H37.1613V46.4516H35.6129V45.6775C35.6129 42.69 38.0444 40.2582 41.0323 40.2582C44.0198 40.2582 46.4516 42.69 46.4516 45.6775V46.4516Z" fill="#8870E9"/>
<path d="M22.4523 18.5814H25.5491V20.1298H22.4523V18.5814Z" fill="#FFA800"/>
<path d="M23.2265 13.8582V15.4848H24.7748V13.8582C25.2677 13.7577 25.7263 13.5611 26.1319 13.2916L27.3241 14.4838L28.4185 13.3891L27.2266 12.1968C27.4958 11.7912 27.6923 11.3331 27.7933 10.8398H29.4199V9.29141H27.7933C27.6923 8.7981 27.4958 8.33995 27.2266 7.93434L28.4185 6.74208L27.3241 5.64735L26.1319 6.83961C25.7263 6.57008 25.2677 6.37351 24.7748 6.27296V4.64636H23.2265V6.27296C22.7331 6.37351 22.275 6.57008 21.869 6.83961L20.6767 5.64735L19.5824 6.74208L20.7747 7.93434C20.5051 8.33995 20.3086 8.7981 20.2076 9.29141H18.5814V10.8398H20.2076C20.3086 11.3331 20.5051 11.7912 20.7747 12.1968L19.5824 13.3891L20.6767 14.4838L21.869 13.2916C22.275 13.5611 22.7331 13.7577 23.2265 13.8582ZM24.0006 7.74306C25.281 7.74306 26.3232 8.78525 26.3232 10.0656C26.3232 11.3459 25.281 12.3881 24.0006 12.3881C22.7199 12.3881 21.6781 11.3459 21.6781 10.0656C21.6781 8.78525 22.7199 7.74306 24.0006 7.74306Z" fill="#FFA800"/>
</svg>
