<svg width="48" height="48" viewBox="0 0 48 48" fill="none" xmlns="http://www.w3.org/2000/svg">
<g clip-path="url(#clip0)">
<path d="M14.9682 28.4885C15.3058 28.9981 15.4838 29.5871 15.4838 30.1934C15.4838 31.9013 14.095 33.2902 12.387 33.2902C11.7807 33.2902 11.1917 33.1121 10.6822 32.7746L9.82744 34.0659C10.591 34.5713 11.476 34.8386 12.387 34.8386C14.9489 34.8386 17.0322 32.7553 17.0322 30.1934C17.0322 29.2824 16.7649 28.3974 16.2595 27.6331L14.9682 28.4885Z" fill="#8870E9"/>
<path d="M12.3871 27.0967C12.9935 27.0967 13.5832 27.2748 14.0913 27.6116L14.9467 26.321C14.1839 25.8156 13.2993 25.5483 12.3871 25.5483C9.82527 25.5483 7.74197 27.6316 7.74197 30.1935C7.74197 31.1045 8.00924 31.9895 8.51466 32.7539L9.80599 31.8991C9.46841 31.3888 9.29036 30.7998 9.29036 30.1935C9.29036 28.4856 10.6792 27.0967 12.3871 27.0967Z" fill="#8870E9"/>
<path d="M27.8708 32.5161V37.1613H30.9676V35.6129H29.4192V32.5161H27.8708Z" fill="#FFA800"/>
<path d="M28.6452 27.8708C26.6859 27.8708 24.772 28.5536 23.2561 29.7939L24.2378 30.9926C25.2759 30.1424 26.5449 29.6173 27.871 29.468V30.9676H29.4194V29.465C32.644 29.8233 35.2089 32.389 35.5672 35.6128H34.0646V37.1612H35.5642C35.4149 38.488 34.8898 39.7563 34.0396 40.7951L35.2376 41.7761C36.4779 40.2602 37.1613 38.3463 37.1613 36.387C37.1613 31.6915 33.3407 27.8708 28.6452 27.8708Z" fill="#FFA800"/>
<path d="M29.4195 43.3061V41.8065H27.8711V43.3092C24.6466 42.9508 22.0817 40.3851 21.7233 37.1614H23.226V35.613H21.7263C21.8757 34.2861 22.4007 33.0178 23.2509 31.979L22.0529 30.998C20.8126 32.5139 20.1292 34.4279 20.1292 36.3872C20.1292 41.0826 23.9499 44.9033 28.6453 44.9033C30.6046 44.9033 32.5185 44.2206 34.0344 42.9803L33.0527 41.7816C32.0146 42.6317 30.7464 43.1568 29.4195 43.3061Z" fill="#FFA800"/>
<path d="M43.3548 35.6129H41.8064V13.9355H37.1613V28.5182C36.6884 28.0063 36.1705 27.5387 35.6129 27.1183V17.8065H30.9677V25.0078C30.4638 24.905 29.9444 24.8479 29.4194 24.8128V21.6774H24.7742V25.4516C23.9955 25.728 23.2553 26.0848 22.5624 26.5131C22.4066 26.0818 22.235 25.6584 22.0275 25.2543L23.2515 23.54L19.0407 19.3276L17.3256 20.5524C16.8092 20.2886 16.2698 20.0655 15.7122 19.8867L15.3663 17.8065H9.40864L9.06275 19.8867C8.50517 20.0655 7.96573 20.2886 7.44934 20.5524L5.73463 19.3276L1.52344 23.54L2.74748 25.2543C2.48286 25.7699 2.25983 26.3094 2.08102 26.8677L0 27.2151V33.172L2.08027 33.5187C2.25907 34.077 2.48286 34.6164 2.74672 35.1321L1.52268 36.846L5.73349 41.0587L7.44859 39.8339C7.96497 40.0978 8.50441 40.3208 9.062 40.4996L9.40789 42.5807H15.3655L15.7114 40.5004C16.269 40.3216 16.8085 40.0986 17.3248 39.8347L17.6345 40.0558C19.176 44.6647 23.5248 48 28.6452 48C34.7877 48 39.8177 43.204 40.2188 37.1613H48V7.74194H43.3548V35.6129ZM38.7097 15.4839H40.2581V35.6129H40.2188C40.0985 33.8037 39.5667 32.1083 38.7097 30.6185V15.4839ZM32.5161 19.3548H34.0645V26.1245C33.5697 25.8618 33.0503 25.6422 32.5161 25.4524V19.3548ZM26.3226 23.2258H27.871V24.8135C27.3459 24.8487 26.8265 24.9058 26.3226 25.009V23.2258ZM16.9975 38.2515C16.3208 38.6394 15.5909 38.941 14.825 39.1486L14.3456 39.2786L14.053 41.0323H10.7204L10.4278 39.2786L9.94846 39.1486C9.18334 38.941 8.45262 38.6394 7.77596 38.2515L7.34463 38.0043L5.90096 39.0363L3.5436 36.6797L4.5756 35.2345L4.32838 34.8032C3.94128 34.128 3.63886 33.3981 3.43133 32.6314L3.30204 32.1521L1.54839 31.8603V28.5269L3.30204 28.235L3.43208 27.7557C3.64113 26.9883 3.94204 26.2576 4.32913 25.5839L4.57636 25.1526L3.54435 23.7074L5.90171 21.3508L7.34539 22.3828L7.77671 22.1356C8.45338 21.7477 9.18334 21.4461 9.94922 21.2385L10.4286 21.1085L10.7211 19.3548H14.0538L14.3464 21.1085L14.8257 21.2385C15.5909 21.4461 16.3216 21.7477 16.9982 22.1356L17.4296 22.3828L18.8732 21.3508L21.2306 23.7074L20.1986 25.1526L20.4458 25.5839C20.78 26.1661 21.037 26.797 21.2393 27.4506C20.7864 27.8268 20.3706 28.2441 19.9797 28.683C19.2743 25.1348 16.139 22.4516 12.3871 22.4516C8.11807 22.4516 4.64516 25.9245 4.64516 30.1936C4.64516 34.4626 8.11807 37.9355 12.3871 37.9355C14.078 37.9355 15.7046 37.3636 17.033 36.3663C17.033 36.3731 17.0323 36.3803 17.0323 36.3871C17.0323 36.987 17.092 37.5715 17.1801 38.1468L16.9975 38.2515ZM18.5614 30.6495C17.9785 31.6709 17.5418 32.7842 17.2893 33.9678C16.1201 35.4829 14.3018 36.3871 12.3871 36.3871C8.97203 36.3871 6.19355 33.6086 6.19355 30.1936C6.19355 26.7785 8.97203 24 12.3871 24C15.8022 24 18.5806 26.7785 18.5806 30.1936C18.5806 30.3478 18.572 30.4986 18.5614 30.6495ZM28.6452 46.4516C23.0958 46.4516 18.5806 41.9365 18.5806 36.3871C18.5806 30.8377 23.0958 26.3226 28.6452 26.3226C34.1946 26.3226 38.7097 30.8377 38.7097 36.3871C38.7097 41.9365 34.1946 46.4516 28.6452 46.4516ZM44.9032 9.29033H46.4516V35.6129H44.9032V9.29033Z" fill="#8870E9"/>
<path d="M43.3548 0V1.54839H45.0185L39.5413 5.93044L37.1613 3.5504L33.5111 7.2006C33.2083 7.05507 32.8737 6.96774 32.5161 6.96774C31.2358 6.96774 30.1935 8.00995 30.1935 9.29032C30.1935 9.69065 30.3051 10.0622 30.4839 10.3911L26.4371 14.8877C26.1631 14.7739 25.8637 14.7097 25.5484 14.7097C25.5336 14.7097 25.5204 14.7135 25.5057 14.7142L22.3926 6.41205C22.8977 5.98601 23.2258 5.3566 23.2258 4.64516C23.2258 3.36479 22.1836 2.32258 20.9032 2.32258C19.6229 2.32258 18.5806 3.36479 18.5806 4.64516C18.5806 4.81225 18.5999 4.9748 18.6339 5.13281L12.2873 9.0378C11.8892 8.71648 11.3891 8.51613 10.8387 8.51613C9.8309 8.51613 8.97921 9.16557 8.65864 10.0645H4.50265C4.18208 9.16557 3.33039 8.51613 2.32258 8.51613C1.04221 8.51613 0 9.55834 0 10.8387C0 12.1191 1.04221 13.1613 2.32258 13.1613C3.33039 13.1613 4.18208 12.5118 4.50265 11.6129H8.6594C8.97996 12.5118 9.83165 13.1613 10.8395 13.1613C12.1198 13.1613 13.162 12.1191 13.162 10.8387C13.162 10.6716 13.1428 10.5091 13.1087 10.3511L19.4554 6.44607C19.8527 6.76739 20.3528 6.96774 20.9032 6.96774C20.918 6.96774 20.9312 6.96396 20.9459 6.96321L24.059 15.2646C23.5539 15.6914 23.2258 16.3208 23.2258 17.0323C23.2258 18.3126 24.268 19.3548 25.5484 19.3548C26.8288 19.3548 27.871 18.3126 27.871 17.0323C27.871 16.6319 27.7602 16.2603 27.5806 15.9315L31.6274 11.4349C31.9015 11.5486 32.2009 11.6129 32.5161 11.6129C33.7965 11.6129 34.8387 10.5707 34.8387 9.29032C34.8387 8.93271 34.7514 8.59816 34.6058 8.29536L37.1613 5.73992L39.4264 8.00504L46.4516 2.38533V4.64516H48V0H43.3548ZM2.32258 11.6129C1.89541 11.6129 1.54839 11.2651 1.54839 10.8387C1.54839 10.4123 1.89541 10.0645 2.32258 10.0645C2.74975 10.0645 3.09677 10.4123 3.09677 10.8387C3.09677 11.2651 2.74975 11.6129 2.32258 11.6129ZM10.8387 11.6129C10.4115 11.6129 10.0645 11.2651 10.0645 10.8387C10.0645 10.4123 10.4115 10.0645 10.8387 10.0645C11.2659 10.0645 11.6129 10.4123 11.6129 10.8387C11.6129 11.2651 11.2659 11.6129 10.8387 11.6129ZM20.129 4.64516C20.129 4.21875 20.4761 3.87097 20.9032 3.87097C21.3304 3.87097 21.6774 4.21875 21.6774 4.64516C21.6774 5.07157 21.3304 5.41935 20.9032 5.41935C20.4761 5.41935 20.129 5.07157 20.129 4.64516ZM25.5484 17.8065C25.1212 17.8065 24.7742 17.4587 24.7742 17.0323C24.7742 16.6058 25.1212 16.2581 25.5484 16.2581C25.9756 16.2581 26.3226 16.6058 26.3226 17.0323C26.3226 17.4587 25.9756 17.8065 25.5484 17.8065ZM32.5161 10.0645C32.089 10.0645 31.7419 9.71673 31.7419 9.29032C31.7419 8.86391 32.089 8.51613 32.5161 8.51613C32.9433 8.51613 33.2903 8.86391 33.2903 9.29032C33.2903 9.71673 32.9433 10.0645 32.5161 10.0645Z" fill="#8870E9"/>
</g>
<defs>
<clipPath id="clip0">
<rect width="48" height="48" fill="white"/>
</clipPath>
</defs>
</svg>
