<svg width="46" height="46" viewBox="0 0 46 46" fill="none" xmlns="http://www.w3.org/2000/svg">
<path d="M22.5579 45.5001C21.9295 45.5008 21.3167 45.3041 20.806 44.9378C20.2954 44.5716 19.9126 44.0541 19.7118 43.4586C19.511 42.8631 19.5023 42.2196 19.6869 41.6189C19.8715 41.0182 20.2401 40.4906 20.7407 40.1106L20.5157 36.3471C19.5333 36.1991 18.5709 35.9402 17.6469 35.5754L15.5717 38.7254C15.8147 39.3045 15.8697 39.9454 15.7291 40.5575C15.5885 41.1696 15.2594 41.7222 14.788 42.1373C14.3167 42.5524 13.7269 42.8091 13.1019 42.8712C12.4769 42.9334 11.8482 42.7977 11.3044 42.4835C10.7606 42.1693 10.3291 41.6923 10.0707 41.1198C9.81242 40.5473 9.7403 39.9082 9.86454 39.2925C9.98878 38.6768 10.3031 38.1157 10.7632 37.6882C11.2234 37.2607 11.8061 36.9883 12.4292 36.9096L14.1204 33.5391C13.3428 32.9175 12.6368 32.2114 12.0152 31.4339L8.64768 33.1251C8.56894 33.7482 8.29662 34.3309 7.8691 34.791C7.44158 35.2512 6.88044 35.5655 6.26477 35.6897C5.64911 35.814 5.00997 35.7419 4.43748 35.4835C3.86498 35.2252 3.388 34.7937 3.07378 34.2499C2.75955 33.7061 2.62394 33.0774 2.68605 32.4524C2.74816 31.8274 3.00486 31.2376 3.41997 30.7663C3.83508 30.2949 4.38765 29.9657 4.99979 29.8252C5.61192 29.6846 6.25275 29.7396 6.83192 29.9826L9.98193 27.9081C9.61633 26.9842 9.35667 26.0218 9.20792 25.0394L5.44443 24.8144C5.06414 25.3139 4.53672 25.6815 3.93647 25.8654C3.33622 26.0494 2.69339 26.0404 2.09853 25.8397C1.50366 25.639 0.986741 25.2568 0.620578 24.7469C0.254414 24.2369 0.0574608 23.6249 0.0574608 22.9971C0.0574608 22.3693 0.254414 21.7573 0.620578 21.2474C0.986741 20.7374 1.50366 20.3552 2.09853 20.1545C2.69339 19.9538 3.33622 19.9448 3.93647 20.1288C4.53672 20.3127 5.06414 20.6803 5.44443 21.1799L9.20792 20.9549C9.35595 19.9725 9.61485 19.0101 9.97968 18.0861L6.82968 16.0109C6.25015 16.2536 5.60902 16.3084 4.99674 16.1673C4.38446 16.0262 3.83193 15.6964 3.41712 15.2244C3.00231 14.7525 2.74614 14.1622 2.68477 13.5369C2.6234 12.9116 2.75992 12.2828 3.07507 11.7392C3.39022 11.1956 3.86809 10.7647 4.44126 10.5072C5.01442 10.2498 5.65396 10.1788 6.26963 10.3043C6.8853 10.4298 7.44602 10.7455 7.87269 11.2067C8.29936 11.668 8.57044 12.2515 8.64768 12.8751L12.0182 14.5656C12.6398 13.788 13.3458 13.0819 14.1234 12.4604L12.4329 9.08985C11.8098 9.01111 11.2271 8.73879 10.767 8.31128C10.3069 7.88376 9.99253 7.32261 9.86829 6.70695C9.74405 6.09128 9.81617 5.45215 10.0745 4.87965C10.3328 4.30716 10.7643 3.83017 11.3081 3.51595C11.8519 3.20173 12.4807 3.06611 13.1057 3.12822C13.7307 3.19033 14.3204 3.44703 14.7918 3.86214C15.2631 4.27725 15.5923 4.82982 15.7329 5.44196C15.8735 6.0541 15.8184 6.69493 15.5754 7.2741L17.6507 10.4241C18.5742 10.058 19.5364 9.79829 20.5187 9.6501L20.7437 5.8866C20.2442 5.50631 19.8765 4.97889 19.6926 4.37865C19.5086 3.7784 19.5176 3.13557 19.7183 2.5407C19.919 1.94584 20.3012 1.42891 20.8112 1.06275C21.3211 0.696587 21.9331 0.499634 22.5609 0.499634C23.1887 0.499634 23.8007 0.696587 24.3107 1.06275C24.8206 1.42891 25.2029 1.94584 25.4035 2.5407C25.6042 3.13557 25.6132 3.7784 25.4293 4.37865C25.2453 4.97889 24.8777 5.50631 24.3782 5.8866L24.6032 9.6501C25.5856 9.79751 26.5481 10.0564 27.4719 10.4219L29.5472 7.27185C29.3042 6.69268 29.2491 6.05185 29.3897 5.43971C29.5303 4.82757 29.8595 4.275 30.3308 3.85989C30.8022 3.44478 31.3919 3.18808 32.0169 3.12597C32.6419 3.06386 33.2706 3.19948 33.8145 3.5137C34.3583 3.82792 34.7898 4.30491 35.0481 4.8774C35.3064 5.4499 35.3785 6.08903 35.2543 6.7047C35.1301 7.32036 34.8157 7.88151 34.3556 8.30903C33.8955 8.73654 33.3128 9.00886 32.6897 9.0876L30.9984 12.4581C31.776 13.0797 32.4821 13.7858 33.1037 14.5634L36.4682 12.8751C36.5468 12.2519 36.819 11.6691 37.2464 11.2089C37.6739 10.7487 38.235 10.4342 38.8507 10.3099C39.4663 10.1855 40.1055 10.2575 40.6781 10.5158C41.2506 10.774 41.7277 11.2055 42.042 11.7493C42.3563 12.2931 42.492 12.9219 42.4299 13.5469C42.3678 14.172 42.1112 14.7618 41.696 15.2332C41.2809 15.7045 40.7283 16.0337 40.1162 16.1743C39.504 16.3149 38.8631 16.2599 38.2839 16.0169L35.1339 18.0921C35.4995 19.016 35.7592 19.9784 35.9079 20.9609L39.6714 21.1859C40.0517 20.6863 40.5791 20.3187 41.1794 20.1348C41.7796 19.9508 42.4225 19.9598 43.0173 20.1605C43.6122 20.3612 44.1291 20.7434 44.4953 21.2534C44.8614 21.7633 45.0584 22.3753 45.0584 23.0031C45.0584 23.6309 44.8614 24.2429 44.4953 24.7529C44.1291 25.2628 43.6122 25.645 43.0173 25.8457C42.4225 26.0464 41.7796 26.0554 41.1794 25.8714C40.5791 25.6875 40.0517 25.3199 39.6714 24.8204L35.9079 25.0454C35.7599 26.0277 35.501 26.9901 35.1362 27.9141L38.2862 29.9886C38.8653 29.7456 39.5062 29.6906 40.1183 29.8312C40.7305 29.9718 41.283 30.3009 41.6981 30.7723C42.1132 31.2436 42.3699 31.8334 42.4321 32.4584C42.4942 33.0834 42.3585 33.7121 42.0443 34.2559C41.7301 34.7997 41.2531 35.2312 40.6806 35.4895C40.1081 35.7479 39.469 35.82 38.8533 35.6957C38.2377 35.5715 37.6765 35.2572 37.249 34.797C36.8215 34.3369 36.5492 33.7542 36.4704 33.1311L33.0999 31.4406C32.4783 32.2182 31.7723 32.9243 30.9947 33.5459L32.6829 36.9104C33.306 36.9891 33.8887 37.2614 34.3489 37.6889C34.809 38.1165 35.1233 38.6776 35.2476 39.2933C35.3718 39.9089 35.2997 40.5481 35.0414 41.1206C34.783 41.6931 34.3515 42.17 33.8077 42.4843C33.2639 42.7985 32.6352 42.9341 32.0102 42.872C31.3852 42.8099 30.7954 42.5532 30.3241 42.1381C29.8527 41.723 29.5236 41.1704 29.383 40.5583C29.2424 39.9461 29.2974 39.3053 29.5404 38.7261L27.4652 35.5761C26.5415 35.9417 25.5794 36.2013 24.5972 36.3501L24.3722 40.1136C24.8713 40.4938 25.2387 41.0209 25.4226 41.6208C25.6065 42.2207 25.5977 42.8631 25.3974 43.4577C25.1971 44.0523 24.8155 44.5692 24.3061 44.9355C23.7968 45.3019 23.1854 45.4994 22.5579 45.5001ZM17.3687 33.8901C17.4758 33.8902 17.5817 33.9132 17.6792 33.9576C18.8282 34.4784 20.0541 34.8092 21.3092 34.9371C21.4859 34.9556 21.6503 35.0363 21.7731 35.1647C21.8959 35.2931 21.9691 35.461 21.9797 35.6384L22.2639 40.4609C22.2725 40.6053 22.2391 40.7491 22.1678 40.875C22.0964 41.0009 21.9902 41.1035 21.8619 41.1704C21.5647 41.326 21.3283 41.5768 21.1905 41.8827C21.0526 42.1885 21.0212 42.5317 21.1014 42.8575C21.1815 43.1833 21.3686 43.4728 21.6326 43.6797C21.8966 43.8867 22.2224 43.9991 22.5579 43.9991C22.8934 43.9991 23.2192 43.8867 23.4832 43.6797C23.7473 43.4728 23.9343 43.1833 24.0145 42.8575C24.0946 42.5317 24.0633 42.1885 23.9254 41.8827C23.7875 41.5768 23.5511 41.326 23.2539 41.1704C23.1256 41.1035 23.0194 41.0009 22.9481 40.875C22.8767 40.7491 22.8433 40.6053 22.8519 40.4609L23.1362 35.6384C23.1468 35.461 23.22 35.2931 23.3428 35.1647C23.4656 35.0363 23.63 34.9556 23.8067 34.9371C25.0617 34.8092 26.2876 34.4784 27.4367 33.9576C27.5995 33.8834 27.7834 33.8698 27.9553 33.9193C28.1272 33.9689 28.2758 34.0782 28.3742 34.2276L31.0367 38.2701C31.1164 38.3921 31.1588 38.5347 31.1588 38.6804C31.1588 38.8261 31.1164 38.9686 31.0367 39.0906C30.8887 39.321 30.8075 39.588 30.802 39.8618C30.7966 40.1356 30.8672 40.4055 31.0059 40.6416C31.1563 40.8972 31.3787 41.1026 31.6454 41.2323C31.912 41.3619 32.211 41.41 32.5049 41.3704C32.7987 41.3309 33.0744 41.2054 33.2972 41.0099C33.5201 40.8143 33.6803 40.5573 33.7577 40.2711C33.8167 40.0438 33.8218 39.8058 33.7724 39.5762C33.723 39.3466 33.6205 39.1318 33.4732 38.9489C33.3259 38.766 33.1378 38.6201 32.924 38.523C32.7102 38.4258 32.4766 38.3801 32.2419 38.3894C32.0972 38.3959 31.9536 38.3603 31.8286 38.287C31.7037 38.2136 31.6026 38.1057 31.5377 37.9761L29.3702 33.6561C29.2904 33.4971 29.2698 33.3149 29.312 33.1421C29.3541 32.9692 29.4564 32.817 29.6004 32.7126C30.6253 31.9708 31.5256 31.0705 32.2674 30.0456C32.3717 29.9014 32.5239 29.799 32.6967 29.7567C32.8696 29.7144 33.0518 29.7349 33.2109 29.8146L37.5309 31.9829C37.6605 32.0478 37.7685 32.1488 37.8418 32.2738C37.9151 32.3988 37.9507 32.5423 37.9442 32.6871C37.9305 33.0221 38.0294 33.352 38.2252 33.6242C38.421 33.8964 38.7023 34.0951 39.0242 34.1887C39.3462 34.2823 39.6902 34.2653 40.0013 34.1405C40.3125 34.0157 40.5729 33.7902 40.7409 33.5001C40.9395 33.1556 40.9937 32.7465 40.8917 32.3622C40.7897 31.9779 40.5397 31.6495 40.1964 31.4489C39.9605 31.3109 39.691 31.2409 39.4178 31.2467C39.1445 31.2526 38.8782 31.3339 38.6484 31.4819C38.5264 31.5616 38.3839 31.604 38.2382 31.604C38.0925 31.604 37.9499 31.5616 37.8279 31.4819L33.7854 28.8194C33.6357 28.7211 33.5261 28.5724 33.4764 28.4003C33.4268 28.2282 33.4403 28.0441 33.5147 27.8811C34.0361 26.7328 34.3672 25.5073 34.4949 24.2526C34.5135 24.0758 34.5942 23.9113 34.7228 23.7885C34.8514 23.6657 35.0194 23.5925 35.1969 23.5821L40.0187 23.2971C40.1631 23.2885 40.3069 23.3219 40.4328 23.3933C40.5587 23.4646 40.6613 23.5708 40.7282 23.6991C40.8838 23.9963 41.1346 24.2327 41.4405 24.3706C41.7463 24.5085 42.0895 24.5398 42.4153 24.4597C42.7411 24.3795 43.0306 24.1925 43.2375 23.9284C43.4445 23.6644 43.5569 23.3386 43.5569 23.0031C43.5569 22.6676 43.4445 22.3418 43.2375 22.0778C43.0306 21.8137 42.7411 21.6267 42.4153 21.5465C42.0895 21.4664 41.7463 21.4978 41.4405 21.6356C41.1346 21.7735 40.8838 22.0099 40.7282 22.3071C40.6613 22.4354 40.5587 22.5416 40.4328 22.613C40.3069 22.6843 40.1631 22.7177 40.0187 22.7091L35.1969 22.4241C35.0194 22.4137 34.8514 22.3406 34.7228 22.2178C34.5942 22.0949 34.5135 21.9304 34.4949 21.7536C34.3672 20.4989 34.0361 19.2734 33.5147 18.1251C33.4403 17.9621 33.4268 17.778 33.4764 17.6059C33.5261 17.4338 33.6357 17.2852 33.7854 17.1869L37.8279 14.5244C37.9499 14.4446 38.0925 14.4022 38.2382 14.4022C38.3839 14.4022 38.5264 14.4446 38.6484 14.5244C38.8788 14.6721 39.1455 14.7532 39.4191 14.7588C39.6927 14.7643 39.9625 14.6941 40.1987 14.5559C40.4545 14.4058 40.6604 14.1834 40.7903 13.9168C40.9202 13.6501 40.9685 13.351 40.929 13.057C40.8895 12.763 40.764 12.4872 40.5683 12.2643C40.3725 12.0414 40.1153 11.8813 39.8289 11.8041C39.6016 11.744 39.3634 11.7383 39.1334 11.7872C38.9035 11.8362 38.6882 11.9385 38.5051 12.086C38.322 12.2334 38.1761 12.4218 38.0791 12.636C37.9822 12.8502 37.937 13.0842 37.9472 13.3191C37.9537 13.4639 37.9181 13.6074 37.8448 13.7324C37.7715 13.8574 37.6635 13.9584 37.5339 14.0234L33.2139 16.1916C33.0548 16.2713 32.8726 16.2918 32.6997 16.2495C32.5269 16.2072 32.3747 16.1048 32.2704 15.9606C31.5286 14.9357 30.6284 14.0354 29.6034 13.2936C29.4594 13.1892 29.3571 13.037 29.315 12.8642C29.2728 12.6913 29.2934 12.5091 29.3732 12.3501L31.5407 8.0301C31.6056 7.90055 31.7067 7.79257 31.8316 7.71923C31.9566 7.6459 32.1002 7.61034 32.2449 7.61685C32.5807 7.63151 32.9116 7.533 33.1846 7.33713C33.4577 7.14127 33.6571 6.85938 33.7508 6.53668C33.8445 6.21397 33.8272 5.86914 33.7016 5.55746C33.5759 5.24579 33.3493 4.98533 33.0579 4.81785C32.7136 4.61901 32.3045 4.56458 31.9201 4.66647C31.5357 4.76836 31.2073 5.01828 31.0067 5.3616C30.8686 5.59744 30.7985 5.86692 30.8042 6.14016C30.8099 6.41339 30.8911 6.67972 31.0389 6.9096C31.1186 7.03158 31.1611 7.17414 31.1611 7.31985C31.1611 7.46556 31.1186 7.60812 31.0389 7.7301L28.3764 11.7726C28.278 11.922 28.1295 12.0314 27.9576 12.0809C27.7857 12.1304 27.6017 12.1168 27.4389 12.0426C26.2903 11.5214 25.0646 11.1905 23.8097 11.0631C23.6328 11.0447 23.4682 10.9642 23.3453 10.8357C23.2223 10.7073 23.149 10.5393 23.1384 10.3619L22.8542 5.53935C22.8456 5.39491 22.879 5.25108 22.9503 5.12519C23.0216 4.9993 23.1279 4.89673 23.2562 4.82985C23.5534 4.67419 23.7898 4.42339 23.9276 4.11755C24.0655 3.81171 24.0969 3.46848 24.0167 3.14272C23.9366 2.81695 23.7495 2.52746 23.4855 2.32051C23.2215 2.11356 22.8957 2.0011 22.5602 2.0011C22.2247 2.0011 21.8989 2.11356 21.6349 2.32051C21.3708 2.52746 21.1838 2.81695 21.1036 3.14272C21.0235 3.46848 21.0548 3.81171 21.1927 4.11755C21.3306 4.42339 21.567 4.67419 21.8642 4.82985C21.9925 4.89673 22.0987 4.9993 22.17 5.12519C22.2414 5.25108 22.2747 5.39491 22.2662 5.53935L21.9819 10.3619C21.9713 10.5393 21.898 10.7073 21.7751 10.8357C21.6521 10.9642 21.4875 11.0447 21.3107 11.0631C20.0563 11.1907 18.8311 11.5215 17.6829 12.0426C17.5201 12.1168 17.3362 12.1304 17.1643 12.0809C16.9924 12.0314 16.8438 11.922 16.7454 11.7726L14.0829 7.7301C14.0032 7.60812 13.9608 7.46556 13.9608 7.31985C13.9608 7.17414 14.0032 7.03158 14.0829 6.9096C14.2309 6.67918 14.3121 6.41225 14.3176 6.13845C14.323 5.86465 14.2524 5.5947 14.1137 5.3586C13.9635 5.10297 13.7412 4.89738 13.4746 4.76762C13.2081 4.63786 12.9091 4.5897 12.6153 4.6292C12.3215 4.66869 12.0458 4.79407 11.823 4.98961C11.6002 5.18515 11.44 5.44215 11.3627 5.72835C11.3025 5.95571 11.2966 6.19404 11.3455 6.42409C11.3944 6.65414 11.4967 6.86948 11.6441 7.0527C11.7916 7.23593 11.9801 7.38191 12.1944 7.47887C12.4086 7.57583 12.6427 7.62104 12.8777 7.61085C13.0224 7.60434 13.166 7.6399 13.291 7.71323C13.4159 7.78657 13.517 7.89455 13.5819 8.0241L15.7494 12.3441C15.8292 12.5031 15.8498 12.6853 15.8076 12.8582C15.7655 13.031 15.6632 13.1832 15.5192 13.2876C14.4942 14.0294 13.594 14.9297 12.8522 15.9546C12.7479 16.0988 12.5957 16.2012 12.4229 16.2435C12.25 16.2858 12.0678 16.2653 11.9087 16.1856L7.58868 14.0174C7.45912 13.9524 7.35115 13.8514 7.27781 13.7264C7.20447 13.6014 7.16891 13.4579 7.17543 13.3131C7.19074 12.9769 7.09253 12.6453 6.8966 12.3716C6.70067 12.098 6.41839 11.8982 6.09517 11.8043C5.77195 11.7105 5.42656 11.7281 5.11455 11.8543C4.80254 11.9805 4.54203 12.208 4.37493 12.5001C4.17635 12.8446 4.12215 13.2537 4.22417 13.638C4.32619 14.0223 4.57613 14.3507 4.91943 14.5514C5.15544 14.689 5.42491 14.7588 5.69808 14.753C5.97124 14.7471 6.23749 14.6659 6.46742 14.5184C6.58941 14.4386 6.73196 14.3962 6.87768 14.3962C7.02339 14.3962 7.16594 14.4386 7.28793 14.5184L11.3304 17.1809C11.4802 17.2792 11.5898 17.4278 11.6394 17.5999C11.6891 17.772 11.6755 17.9561 11.6012 18.1191C11.0798 19.2674 10.7487 20.4929 10.6209 21.7476C10.6024 21.9244 10.5216 22.0889 10.393 22.2118C10.2645 22.3346 10.0964 22.4077 9.91892 22.4181L5.09718 22.7031C4.95265 22.7123 4.80858 22.6791 4.68259 22.6077C4.55659 22.5363 4.45411 22.4298 4.38768 22.3011C4.23201 22.0039 3.98122 21.7675 3.67538 21.6296C3.36954 21.4918 3.02631 21.4604 2.70054 21.5405C2.37478 21.6207 2.08529 21.8077 1.87834 22.0718C1.67139 22.3358 1.55892 22.6616 1.55892 22.9971C1.55892 23.3326 1.67139 23.6584 1.87834 23.9224C2.08529 24.1865 2.37478 24.3735 2.70054 24.4537C3.02631 24.5338 3.36954 24.5025 3.67538 24.3646C3.98122 24.2267 4.23201 23.9903 4.38768 23.6931C4.45456 23.5648 4.55713 23.4586 4.68302 23.3873C4.8089 23.3159 4.95274 23.2825 5.09718 23.2911L9.91892 23.5761C10.0964 23.5865 10.2645 23.6597 10.393 23.7825C10.5216 23.9053 10.6024 24.0698 10.6209 24.2466C10.7487 25.5013 11.0798 26.7268 11.6012 27.8751C11.6755 28.0381 11.6891 28.2222 11.6394 28.3943C11.5898 28.5664 11.4802 28.7151 11.3304 28.8134L7.28793 31.4759C7.16594 31.5556 7.02339 31.598 6.87768 31.598C6.73196 31.598 6.58941 31.5556 6.46742 31.4759C6.23725 31.3276 5.97046 31.2462 5.69676 31.2407C5.42305 31.2351 5.15318 31.3056 4.91718 31.4444C4.66131 31.5944 4.45548 31.8168 4.32556 32.0834C4.19563 32.3501 4.14739 32.6492 4.18689 32.9432C4.22639 33.2372 4.35188 33.513 4.54759 33.7359C4.7433 33.9588 5.00052 34.1189 5.28693 34.1961C5.51424 34.2562 5.75248 34.2619 5.98243 34.213C6.21239 34.164 6.42761 34.0617 6.61075 33.9143C6.79388 33.7668 6.93979 33.5784 7.0367 33.3642C7.13362 33.15 7.17883 32.916 7.16867 32.6811C7.16216 32.5364 7.19772 32.3928 7.27106 32.2678C7.3444 32.1428 7.45237 32.0418 7.58192 31.9769L11.9019 29.8086C12.061 29.7289 12.2433 29.7084 12.4161 29.7507C12.589 29.793 12.7411 29.8954 12.8454 30.0396C13.5872 31.0645 14.4875 31.9648 15.5124 32.7066C15.6565 32.811 15.7587 32.9632 15.8009 33.1361C15.8431 33.3089 15.8224 33.4911 15.7427 33.6501L13.5752 37.9701C13.5103 38.0997 13.4092 38.2076 13.2842 38.281C13.1592 38.3543 13.0157 38.3899 12.8709 38.3834C12.6362 38.3739 12.4025 38.4195 12.1887 38.5167C11.9748 38.6138 11.7866 38.7596 11.6392 38.9426C11.4919 39.1255 11.3894 39.3404 11.3401 39.5701C11.2908 39.7998 11.2959 40.0378 11.3552 40.2651C11.4327 40.5515 11.5931 40.8087 11.8163 41.0042C12.0395 41.1998 12.3155 41.3251 12.6096 41.3644C12.9037 41.4036 13.2029 41.3551 13.4696 41.2249C13.7362 41.0947 13.9585 40.8887 14.1084 40.6326C14.2465 40.3968 14.3166 40.1273 14.3109 39.8541C14.3052 39.5808 14.224 39.3145 14.0762 39.0846C13.9965 38.9626 13.954 38.8201 13.954 38.6744C13.954 38.5286 13.9965 38.3861 14.0762 38.2641L16.7387 34.2216C16.808 34.1185 16.9019 34.0342 17.0118 33.9763C17.1218 33.9185 17.2444 33.8889 17.3687 33.8901Z" fill="#8870E9"/>
<path d="M22.5583 19.25C21.9649 19.25 21.3849 19.0741 20.8915 18.7444C20.3982 18.4148 20.0137 17.9462 19.7866 17.3981C19.5596 16.8499 19.5001 16.2467 19.6159 15.6647C19.7317 15.0828 20.0174 14.5482 20.4369 14.1287C20.8565 13.7091 21.391 13.4234 21.973 13.3076C22.5549 13.1919 23.1581 13.2513 23.7063 13.4784C24.2545 13.7054 24.723 14.0899 25.0527 14.5833C25.3823 15.0766 25.5583 15.6567 25.5583 16.25C25.5583 17.0457 25.2422 17.8087 24.6796 18.3713C24.117 18.9339 23.3539 19.25 22.5583 19.25ZM22.5583 14.75C22.2616 14.75 21.9716 14.838 21.7249 15.0028C21.4782 15.1676 21.286 15.4019 21.1724 15.676C21.0589 15.9501 21.0292 16.2517 21.0871 16.5426C21.145 16.8336 21.2878 17.1009 21.4976 17.3107C21.7074 17.5204 21.9746 17.6633 22.2656 17.7212C22.5566 17.7791 22.8582 17.7494 23.1323 17.6358C23.4064 17.5223 23.6406 17.33 23.8055 17.0834C23.9703 16.8367 24.0583 16.5467 24.0583 16.25C24.0583 15.8522 23.9002 15.4706 23.6189 15.1893C23.3376 14.908 22.9561 14.75 22.5583 14.75Z" fill="#FFA800"/>
<path d="M18.8083 29.75C18.2149 29.75 17.6349 29.574 17.1415 29.2444C16.6482 28.9148 16.2637 28.4462 16.0366 27.898C15.8096 27.3499 15.7501 26.7467 15.8659 26.1647C15.9817 25.5828 16.2674 25.0482 16.6869 24.6287C17.1065 24.2091 17.641 23.9234 18.223 23.8076C18.8049 23.6919 19.4081 23.7513 19.9563 23.9784C20.5045 24.2054 20.973 24.5899 21.3027 25.0833C21.6323 25.5766 21.8083 26.1567 21.8083 26.75C21.8083 27.5456 21.4922 28.3087 20.9296 28.8713C20.367 29.4339 19.6039 29.75 18.8083 29.75ZM18.8083 25.25C18.5116 25.25 18.2216 25.338 17.9749 25.5028C17.7282 25.6676 17.536 25.9019 17.4224 26.176C17.3089 26.4501 17.2792 26.7517 17.3371 27.0426C17.395 27.3336 17.5378 27.6009 17.7476 27.8107C17.9574 28.0204 18.2246 28.1633 18.5156 28.2212C18.8066 28.2791 19.1082 28.2493 19.3823 28.1358C19.6564 28.0223 19.8906 27.83 20.0555 27.5834C20.2203 27.3367 20.3083 27.0467 20.3083 26.75C20.3083 26.3522 20.1502 25.9706 19.8689 25.6893C19.5876 25.408 19.2061 25.25 18.8083 25.25Z" fill="#FFA800"/>
<path d="M28.5583 26.75C27.8166 26.75 27.0916 26.5301 26.4749 26.118C25.8582 25.706 25.3775 25.1203 25.0937 24.4351C24.8099 23.7498 24.7356 22.9958 24.8803 22.2684C25.025 21.541 25.3822 20.8728 25.9066 20.3484C26.4311 19.8239 27.0992 19.4668 27.8267 19.3221C28.5541 19.1774 29.3081 19.2516 29.9933 19.5355C30.6785 19.8193 31.2642 20.2999 31.6763 20.9166C32.0883 21.5333 32.3083 22.2583 32.3083 23C32.3071 23.9942 31.9116 24.9473 31.2086 25.6503C30.5056 26.3533 29.5525 26.7488 28.5583 26.75ZM28.5583 20.75C28.1132 20.75 27.6782 20.882 27.3082 21.1292C26.9382 21.3764 26.6498 21.7278 26.4795 22.139C26.3092 22.5501 26.2647 23.0025 26.3515 23.439C26.4383 23.8754 26.6526 24.2763 26.9673 24.591C27.2819 24.9057 27.6828 25.1199 28.1193 25.2068C28.5558 25.2936 29.0082 25.249 29.4193 25.0787C29.8304 24.9084 30.1818 24.62 30.4291 24.25C30.6763 23.88 30.8083 23.445 30.8083 23C30.8083 22.4033 30.5712 21.831 30.1492 21.409C29.7273 20.9871 29.155 20.75 28.5583 20.75Z" fill="#FFA800"/>
<path d="M15.8083 23C15.3632 23 14.9282 22.868 14.5582 22.6208C14.1882 22.3736 13.8998 22.0222 13.7295 21.611C13.5592 21.1999 13.5147 20.7475 13.6015 20.311C13.6883 19.8746 13.9026 19.4737 14.2173 19.159C14.5319 18.8443 14.9328 18.6301 15.3693 18.5432C15.8058 18.4564 16.2582 18.501 16.6693 18.6713C17.0804 18.8416 17.4318 19.13 17.6791 19.5C17.9263 19.87 18.0583 20.305 18.0583 20.75C18.0583 21.3467 17.8212 21.919 17.3992 22.341C16.9773 22.763 16.405 23 15.8083 23ZM15.8083 20C15.6599 20 15.5149 20.044 15.3916 20.1264C15.2682 20.2088 15.1721 20.3259 15.1153 20.463C15.0586 20.6 15.0437 20.7508 15.0727 20.8963C15.1016 21.0418 15.173 21.1754 15.2779 21.2803C15.3828 21.3852 15.5164 21.4567 15.6619 21.4856C15.8074 21.5145 15.9582 21.4997 16.0953 21.4429C16.2323 21.3861 16.3494 21.29 16.4319 21.1667C16.5143 21.0433 16.5583 20.8983 16.5583 20.75C16.5583 20.5511 16.4792 20.3603 16.3386 20.2197C16.1979 20.079 16.0072 20 15.8083 20Z" fill="#FFA800"/>
<path d="M25.5583 32C25.1132 32 24.6782 31.8681 24.3082 31.6208C23.9382 31.3736 23.6498 31.0222 23.4795 30.611C23.3092 30.1999 23.2647 29.7475 23.3515 29.3111C23.4383 28.8746 23.6526 28.4737 23.9673 28.159C24.2819 27.8443 24.6828 27.6301 25.1193 27.5432C25.5558 27.4564 26.0082 27.501 26.4193 27.6713C26.8304 27.8416 27.1818 28.13 27.4291 28.5C27.6763 28.87 27.8083 29.305 27.8083 29.75C27.8083 30.3467 27.5712 30.919 27.1492 31.341C26.7273 31.763 26.155 32 25.5583 32ZM25.5583 29C25.4099 29 25.2649 29.044 25.1416 29.1264C25.0182 29.2088 24.9221 29.3259 24.8653 29.463C24.8086 29.6 24.7937 29.7508 24.8227 29.8963C24.8516 30.0418 24.923 30.1754 25.0279 30.2803C25.1328 30.3852 25.2664 30.4567 25.4119 30.4856C25.5574 30.5145 25.7082 30.4997 25.8453 30.4429C25.9823 30.3862 26.0994 30.29 26.1819 30.1667C26.2643 30.0433 26.3083 29.8983 26.3083 29.75C26.3083 29.5511 26.2292 29.3603 26.0886 29.2197C25.9479 29.079 25.7572 29 25.5583 29Z" fill="#FFA800"/>
</svg>
